<svg width="44" height="9" viewBox="0 0 44 9" fill="none" xmlns="http://www.w3.org/2000/svg"><path d="M.578.912c.13-.19.339-.203.626-.036C7.719 4.326 14.807 6.05 22.469 6.05c5.108 0 10.15-.868 15.128-2.605.13-.048.32-.12.567-.215.248-.095.424-.166.528-.214.39-.142.697-.071.919.214.22.286.15.548-.215.786-.47.309-1.07.666-1.799 1.07-2.241 1.214-4.743 2.154-7.505 2.82-2.763.666-5.46 1-8.092 1-4.066 0-7.91-.65-11.532-1.946C6.846 5.664 3.601 3.838.735 1.483.578 1.363.5 1.245.5 1.126c0-.072.026-.143.078-.214zm34.908.606c.053-.095.13-.19.235-.285.651-.405 1.277-.678 1.876-.821.99-.238 1.955-.369 2.893-.393.26-.023.508-.012.743.036 1.173.095 1.876.274 2.11.535.105.143.157.357.157.643v.25c0 .832-.248 1.814-.743 2.944s-1.185 2.04-2.072 2.73c-.13.096-.247.143-.351.143a.373.373 0 0 1-.157-.036c-.156-.07-.195-.202-.117-.392.964-2.07 1.446-3.51 1.446-4.319 0-.261-.052-.452-.156-.57-.26-.286-.99-.429-2.19-.429-.442 0-.963.024-1.563.071-.651.072-1.25.143-1.798.215-.156 0-.26-.024-.313-.072-.052-.047-.065-.095-.039-.143 0-.023.013-.06.04-.107z" fill="#F7A51E"/></svg>