<svg width="18" height="15" viewBox="0 0 18 15" fill="none" xmlns="http://www.w3.org/2000/svg"><path d="M16.714 12.679a.33.33 0 0 1-.321.321H1.607a.33.33 0 0 1-.321-.321V4.964c.21.241.442.462.693.663a137.775 137.775 0 0 1 4.279 3.395c.753.633 1.687 1.407 2.732 1.407h.02c1.045 0 1.979-.774 2.732-1.407a137.762 137.762 0 0 1 4.28-3.395c.25-.2.481-.422.692-.663v7.715zm0-10.557c0 .853-.823 1.968-1.476 2.48a624.223 624.223 0 0 0-4.028 3.185c-.533.432-1.497 1.356-2.2 1.356h-.02c-.703 0-1.667-.924-2.2-1.356a623.125 623.125 0 0 0-4.028-3.184C1.858 3.89 1.286 2.895 1.286 1.75c0-.17.15-.321.321-.321h14.786c.382 0 .321.442.321.693zM18 1.75c0-.884-.723-1.607-1.607-1.607H1.607C.723.143 0 .866 0 1.75v10.929c0 .883.723 1.607 1.607 1.607h14.786c.884 0 1.607-.723 1.607-1.607V1.75z" fill="#fff"/></svg>