<svg width="158" height="35" viewBox="0 0 158 35" fill="none" xmlns="http://www.w3.org/2000/svg"><path d="M7.706 33.79H4.032c-1.074-.005-2.101-.395-2.857-1.083-.756-.688-1.178-1.62-1.174-2.588v-12.48a.389.389 0 0 1 0-.061v-2.66c0-.334 1.945-2.147 4.727-4.41l.159.183c.081.102.172.2.27.29.85.712 1.761 1.364 2.724 1.949.121.562.416 1.082.851 1.5.436.416.993.713 1.608.856a3.705 3.705 0 0 0 1.867-.05 3.393 3.393 0 0 0 1.547-.944c.407-.44.666-.975.75-1.543a2.765 2.765 0 0 0-.281-1.665 3.144 3.144 0 0 0-1.225-1.273 3.622 3.622 0 0 0-1.788-.485 3.96 3.96 0 0 0-.6.049 21.157 21.157 0 0 1-2.053-1.44 1.294 1.294 0 0 1-.129-.138c-.023-.027-.047-.058-.07-.082.398-.305.708-.518.975-.704h.017c.925-.652 1.388-.98 1.857-.98.47 0 .908.304 1.88.992 3.211 2.276 9.278 6.854 9.275 7.884v15.23c.005.968-.417 1.899-1.172 2.587-.756.688-1.783 1.078-2.856 1.084h-3.376l-2.026-6.66c.772-.329 1.397-.886 1.772-1.578.374-.693.476-1.48.29-2.232-.188-.752-.654-1.424-1.32-1.906a4.024 4.024 0 0 0-2.35-.744c-.855 0-1.684.263-2.35.744-.668.482-1.133 1.154-1.32 1.906a3.095 3.095 0 0 0 .29 2.232c.374.692.998 1.25 1.77 1.579l-2.008 6.64z" fill="url(#a)"/><path d="M10.933 13.348c-.232 0-.458-.062-.651-.177-.321-.195-3.167-1.913-4.23-2.876-2.702-2.437-2.773-6.32-.17-8.669C6.862.743 8.583-.11 11.2.84c1.415.512 2.937 1.499 4.524 2.93 1.09.984 2.11 1.457 2.954 1.377a2.3 2.3 0 0 0 1.469-.81c.084-.117.193-.219.321-.299a1.25 1.25 0 0 1 .423-.165 1.308 1.308 0 0 1 .89.147c.13.076.243.175.331.29.088.115.15.245.183.382a.965.965 0 0 1 .007.416c-.028.138-.086.269-.17.387a4.406 4.406 0 0 1-1.39 1.197 4.904 4.904 0 0 1-1.814.575c-1.597.156-3.241-.514-4.875-1.989-1.35-1.218-2.634-2.062-3.734-2.46-1.54-.567-2.28-.123-2.765.316-1.689 1.523-1.608 4.054.168 5.653.763.689 3.039 2.117 3.87 2.608.21.127.37.312.456.528.085.215.091.45.018.669-.074.219-.224.41-.428.546a1.27 1.27 0 0 1-.705.21z" fill="#000036"/><path d="M52.188 28.675h-4.689l-2.817-4.42a13.93 13.93 0 0 0-.607-.9 5.288 5.288 0 0 0-.588-.677 2.331 2.331 0 0 0-.62-.432 1.635 1.635 0 0 0-.7-.149h-1.1v6.578h-4.083V11.49h6.471c4.398 0 6.597 1.558 6.597 4.674a4.616 4.616 0 0 1-.29 1.661c-.186.498-.46.961-.81 1.37a5.163 5.163 0 0 1-1.283 1.056 6.81 6.81 0 0 1-1.674.696v.049c.282.085.547.217.782.388a5.3 5.3 0 0 1 .733.629c.24.244.466.5.677.767.215.276.41.547.587.81l3.414 5.085zM41.066 14.392v4.78h1.772a3.031 3.031 0 0 0 2.108-.718c.262-.23.47-.51.608-.823.14-.312.208-.648.2-.987 0-1.503-.946-2.254-2.84-2.252h-1.848zM63.946 23.618h-8.444c.135 1.781 1.319 2.672 3.55 2.672a7.225 7.225 0 0 0 3.757-.959v2.733c-1.198.608-2.752.912-4.665.91-2.088 0-3.71-.549-4.866-1.646-1.156-1.098-1.733-2.632-1.731-4.602 0-2.045.624-3.66 1.871-4.842a6.26 6.26 0 0 1 2.104-1.349 6.535 6.535 0 0 1 2.495-.44c1.888 0 3.347.53 4.379 1.592 1.032 1.062 1.548 2.505 1.55 4.328v1.603zm-3.704-2.324c0-1.759-.75-2.638-2.249-2.638-.32.003-.635.073-.923.206-.287.132-.54.324-.74.56a3.337 3.337 0 0 0-.852 1.883l4.764-.01zM69.568 27.249h-.052v1.427h-3.993V10.508h3.993v7.74h.052a4.645 4.645 0 0 1 1.798-1.611 4.953 4.953 0 0 1 2.41-.533c1.666 0 2.95.544 3.853 1.631.902 1.087 1.352 2.573 1.348 4.456 0 2.045-.527 3.688-1.58 4.927a5.115 5.115 0 0 1-1.877 1.406 5.389 5.389 0 0 1-2.345.45c-1.587 0-2.79-.576-3.607-1.726zm-.114-5.177v1.26c-.027.717.23 1.418.72 1.964.227.252.51.452.828.587.319.135.665.2 1.014.193a2.56 2.56 0 0 0 1.194-.242c.37-.174.687-.435.922-.758.502-.666.752-1.612.752-2.835 0-1.023-.229-1.815-.687-2.378a2.31 2.31 0 0 0-.871-.66 2.438 2.438 0 0 0-1.095-.199 2.654 2.654 0 0 0-1.096.212c-.344.147-.65.366-.893.64a3.118 3.118 0 0 0-.788 2.216zM91.559 28.675h-3.775v-1.762h-.048a4.112 4.112 0 0 1-1.62 1.549 4.403 4.403 0 0 1-2.236.512c-1.258 0-2.246-.341-2.965-1.023-.72-.681-1.079-1.582-1.079-2.702 0-2.386 1.488-3.76 4.462-4.121l3.505-.445c0-1.341-.766-2.012-2.3-2.012a8.151 8.151 0 0 0-4.4 1.306v-2.842a10.355 10.355 0 0 1 2.281-.719 12.67 12.67 0 0 1 2.65-.312c3.692 0 5.538 1.746 5.536 5.236l-.011 7.335zm-3.753-4.986v-.82l-2.351.286c-1.298.162-1.947.718-1.947 1.667-.006.199.033.397.115.58.082.183.205.347.36.481.356.289.816.436 1.283.412.343.01.685-.05 1.001-.177.317-.127.6-.318.83-.56a2.58 2.58 0 0 0 .709-1.869zM101.472 28.53c-.588.296-1.478.442-2.667.442-2.81 0-4.217-1.386-4.22-4.157V19.19h-2.097v-2.789h2.098v-2.649l3.98-1.078V16.4h2.906v2.792h-2.907v4.952c0 1.278.54 1.917 1.618 1.917.457-.01.904-.129 1.299-.348l-.01 2.815zM114.991 23.618h-8.442c.135 1.78 1.318 2.671 3.551 2.671a7.22 7.22 0 0 0 3.753-.959v2.733c-1.197.609-2.752.912-4.664.91-2.089 0-3.707-.548-4.853-1.646-1.147-1.098-1.725-2.631-1.734-4.602 0-2.045.624-3.659 1.871-4.842a6.254 6.254 0 0 1 2.104-1.348 6.533 6.533 0 0 1 2.496-.441c1.887 0 3.347.53 4.381 1.592 1.033 1.062 1.546 2.508 1.537 4.339v1.593zm-3.705-2.324c0-1.76-.749-2.639-2.248-2.639-.32.004-.635.074-.922.207-.287.132-.54.324-.739.56a3.337 3.337 0 0 0-.852 1.872h4.761zM131.408 28.676h-5.155l-5.285-7.465a7.13 7.13 0 0 1-.48-.946h-.062v8.41h-4.082V11.492h4.082v8.124h.062c.103-.222.27-.542.507-.958l5.004-7.159h4.853l-6.306 8.191 6.862 8.987z" fill="#272727"/><path d="M143.327 23.62h-8.442c.133 1.781 1.317 2.672 3.551 2.672a7.222 7.222 0 0 0 3.753-.959v2.733c-1.197.609-2.752.912-4.664.91-2.089 0-3.707-.548-4.853-1.646-1.147-1.098-1.725-2.631-1.734-4.602 0-2.045.624-3.659 1.871-4.842a6.256 6.256 0 0 1 2.104-1.348 6.532 6.532 0 0 1 2.496-.441c1.887 0 3.347.53 4.381 1.592 1.033 1.062 1.549 2.505 1.547 4.328l-.01 1.604zm-3.705-2.323c0-1.76-.749-2.639-2.248-2.639-.32.003-.634.074-.922.207a2.144 2.144 0 0 0-.739.56 3.339 3.339 0 0 0-.855 1.882l4.764-.01zM157.216 16.405l-5.257 13.256c-1.258 3.186-3.162 4.78-5.711 4.78a7.695 7.695 0 0 1-2.388-.311v-3.02a3.515 3.515 0 0 0 1.731.443c.468.024.932-.097 1.322-.346a2.06 2.06 0 0 0 .834-1.032l.683-1.521-5.258-12.248h4.422l2.426 7.467c.168.537.286 1.086.353 1.642h.052c.092-.55.228-1.091.404-1.621l2.44-7.491 3.947.003z" fill="#272727"/><defs><linearGradient id="a" x1="11.181" y1="6.03" x2="11.181" y2="33.808" gradientUnits="userSpaceOnUse"><stop stop-color="#1AA1BB"/><stop offset="1" stop-color="#1A93B2"/></linearGradient></defs></svg>