<svg width="44" height="9" viewBox="0 0 44 9" fill="none" xmlns="http://www.w3.org/2000/svg">
<path d="M0.578182 0.911605C0.708472 0.721268 0.916944 0.709348 1.20364 0.875915C7.71876 4.326 14.8073 6.05102 22.4691 6.05102C27.5769 6.05102 32.6197 5.18257 37.5973 3.44562C37.7276 3.39805 37.9165 3.32666 38.1641 3.23148C38.4117 3.13629 38.5876 3.06491 38.6918 3.01734C39.0827 2.87458 39.3889 2.94596 39.6105 3.23148C39.8319 3.517 39.7603 3.77872 39.3955 4.01667C38.9264 4.32599 38.3269 4.6829 37.5973 5.08738C35.356 6.30085 32.8542 7.24069 30.0918 7.90692C27.3294 8.57315 24.6321 8.90625 22 8.90625C17.9345 8.90625 14.0906 8.25786 10.4682 6.96112C6.84574 5.66439 3.6012 3.83822 0.734545 1.48265C0.578182 1.3637 0.5 1.2447 0.5 1.12575C0.5 1.05437 0.526035 0.982985 0.578182 0.911605ZM35.4864 1.51834C35.5385 1.42315 35.6167 1.328 35.7209 1.23282C36.3724 0.828338 36.9979 0.554699 37.5973 0.411938C38.5876 0.17399 39.5518 0.0431514 40.49 0.0193459C40.7506 -0.00445957 40.9982 0.00746031 41.2327 0.0550356C42.4055 0.150222 43.1091 0.328673 43.3436 0.59039C43.4479 0.733152 43.5 0.947294 43.5 1.23282V1.48265C43.5 2.31542 43.2524 3.2969 42.7573 4.42711C42.2621 5.55731 41.5715 6.46742 40.6855 7.15742C40.5551 7.2526 40.4379 7.30018 40.3336 7.30018C40.2815 7.30018 40.2294 7.2883 40.1773 7.26449C40.0209 7.19311 39.9818 7.06223 40.06 6.8719C41.0242 4.80186 41.5064 3.36236 41.5064 2.55336C41.5064 2.29164 41.4542 2.10127 41.35 1.98232C41.0894 1.69679 40.3597 1.55403 39.1609 1.55403C38.7178 1.55403 38.1967 1.57784 37.5973 1.62541C36.9457 1.69679 36.3464 1.76817 35.7991 1.83956C35.6427 1.83956 35.5385 1.81575 35.4864 1.76817C35.4342 1.7206 35.4212 1.67299 35.4473 1.62541C35.4473 1.60161 35.4603 1.56592 35.4864 1.51834Z" fill="#F7A51E"/>
</svg>
