<svg width="158" height="35" viewBox="0 0 158 35" fill="none" xmlns="http://www.w3.org/2000/svg">
<path d="M7.70577 33.7894H4.03242C2.95849 33.7846 1.93062 33.3952 1.17471 32.707C0.418802 32.0187 -0.00328941 31.0878 0.00119876 30.1189V23.4905V17.639C-0.000399585 17.6187 -0.000399585 17.5983 0.00119876 17.578V14.9188C0.00119876 14.5837 1.94591 12.7713 4.72793 10.508L4.88661 10.6908C4.96819 10.7934 5.0585 10.8902 5.15671 10.9802C6.00751 11.6928 6.91847 12.3446 7.88133 12.9297C8.0021 13.4921 8.29724 14.0121 8.73247 14.4292C9.16771 14.8464 9.72518 15.1435 10.3401 15.2862C10.9551 15.4289 11.6023 15.4113 12.2066 15.2354C12.8109 15.0594 13.3475 14.7325 13.754 14.2924C14.1605 13.8523 14.4204 13.3172 14.5033 12.7492C14.5862 12.1813 14.4888 11.6037 14.2225 11.0837C13.9561 10.5636 13.5317 10.1224 12.9985 9.81134C12.4653 9.50024 11.8452 9.332 11.2103 9.32615C11.0088 9.32712 10.8078 9.34342 10.6093 9.37489C9.89317 8.93282 9.20764 8.45165 8.55658 7.93408C8.51023 7.89122 8.46736 7.84541 8.42828 7.79701C8.40464 7.76959 8.38101 7.73913 8.35738 7.71476C8.75577 7.41015 9.06639 7.19692 9.33311 7.01111H9.34999C10.2751 6.35924 10.7376 6.03027 11.2069 6.03027C11.6762 6.03027 12.1151 6.33488 13.0875 7.0233C16.2983 9.29874 22.3654 13.877 22.362 14.9066V30.1371C22.3665 31.1055 21.9449 32.036 21.1897 32.7242C20.4345 33.4124 19.4075 33.8021 18.3342 33.8077H14.9579L12.9322 27.1489C13.7043 26.8192 14.3291 26.2622 14.7037 25.5696C15.0782 24.8769 15.1803 24.0898 14.9931 23.3378C14.8058 22.5858 14.3404 21.9138 13.6734 21.4322C13.0065 20.9506 12.1777 20.6883 11.3234 20.6883C10.4691 20.6883 9.64035 20.9506 8.97337 21.4322C8.3064 21.9138 7.841 22.5858 7.65375 23.3378C7.4665 24.0898 7.56855 24.8769 7.94312 25.5696C8.3177 26.2622 8.94247 26.8192 9.71463 27.1489L7.70577 33.7894Z" fill="url(#paint0_linear)"/>
<path d="M10.9332 13.3475C10.7015 13.3473 10.4749 13.2859 10.2816 13.1708C9.96081 12.9759 7.11464 11.2579 6.05113 10.2953C3.35014 7.85841 3.27924 3.97463 5.88232 1.62608C6.86143 0.742712 8.58331 -0.110197 11.1999 0.840188C12.6145 1.35193 14.1372 2.33887 15.724 3.77054C16.8146 4.75443 17.8342 5.22658 18.6783 5.14738C19.2674 5.06343 19.7956 4.77203 20.1469 4.33712C20.2312 4.21951 20.3402 4.11803 20.468 4.03846C20.5957 3.95889 20.7395 3.9028 20.8912 3.87338C21.043 3.84396 21.1997 3.8418 21.3523 3.86701C21.505 3.89222 21.6507 3.94432 21.781 4.02032C21.9114 4.09633 22.0238 4.19475 22.112 4.30997C22.2002 4.4252 22.2624 4.55497 22.295 4.69187C22.3276 4.82877 22.33 4.97013 22.3021 5.10787C22.2741 5.24561 22.2164 5.37703 22.1321 5.49464C21.7679 5.97814 21.2938 6.38624 20.7414 6.69189C20.189 6.99753 19.5709 7.19373 18.9281 7.26747C17.3311 7.42282 15.6869 6.75268 14.0528 5.27836C12.7023 4.05992 11.4193 3.21615 10.3187 2.81711C8.77913 2.25053 8.03973 2.69527 7.55356 3.1339C5.86544 4.65696 5.94647 7.18827 7.72237 8.78747C8.4854 9.47589 10.761 10.9045 11.5915 11.3949C11.8024 11.5221 11.9624 11.7071 12.0477 11.9226C12.1331 12.1381 12.1393 12.3727 12.0655 12.5916C11.9917 12.8106 11.8417 13.0023 11.6378 13.1384C11.4339 13.2745 11.1868 13.3478 10.9332 13.3475Z" fill="#000036"/>
<path d="M52.1877 28.6753H47.4992L44.6818 24.2551C44.4715 23.9176 44.2693 23.6185 44.0751 23.3552C43.8996 23.1141 43.703 22.8875 43.4874 22.6777C43.3073 22.5021 43.0978 22.3561 42.8673 22.2456C42.6489 22.1453 42.4089 22.0945 42.1663 22.0974H41.0663V28.6753H36.9844V11.4903H43.455C47.8533 11.4903 50.0524 13.0481 50.0524 16.1636C50.0585 16.7294 49.9599 17.2919 49.7612 17.8254C49.5761 18.3226 49.3025 18.786 48.9524 19.1957C48.5881 19.6116 48.1546 19.9682 47.669 20.2515C47.1475 20.5556 46.5841 20.7896 45.9948 20.9469V20.9955C46.2771 21.0812 46.5416 21.2127 46.7766 21.3841C47.0409 21.572 47.2864 21.7825 47.51 22.013C47.7502 22.2567 47.9761 22.5127 48.1867 22.78C48.4024 23.0561 48.5965 23.327 48.7744 23.5904L52.1877 28.6753ZM41.0663 14.392V19.1727H42.8376C43.613 19.2072 44.3711 18.9488 44.946 18.4543C45.2077 18.2237 45.4151 17.9432 45.5545 17.6313C45.6939 17.3194 45.7622 16.983 45.7548 16.6443C45.7548 15.141 44.8076 14.3903 42.9131 14.392H41.0663Z" fill="#272727"/>
<path d="M63.9463 23.6182H55.5021C55.6369 25.3992 56.8205 26.2897 59.0528 26.2897C60.3755 26.3164 61.6787 25.9838 62.8085 25.331V28.064C61.6114 28.6724 60.0567 28.9758 58.1442 28.9741C56.0557 28.9741 54.4335 28.4253 53.2778 27.3277C52.122 26.2301 51.5451 24.6962 51.5469 22.7259C51.5469 20.6807 52.1706 19.0667 53.418 17.8839C54.0141 17.3023 54.7302 16.8433 55.5215 16.5354C56.3127 16.2276 57.1624 16.0774 58.0175 16.0943C59.9048 16.0943 61.3643 16.6252 62.396 17.687C63.4277 18.7488 63.9445 20.1916 63.9463 22.0152V23.6182ZM60.2418 21.2943C60.2418 19.5354 59.4923 18.6559 57.9933 18.6559C57.6734 18.6588 57.3581 18.7291 57.0704 18.8617C56.7827 18.9944 56.5297 19.1861 56.3298 19.4229C55.85 19.953 55.5527 20.6096 55.4778 21.3045L60.2418 21.2943Z" fill="#272727"/>
<path d="M69.5676 27.2489H69.5164V28.6755H65.5234V10.5088H69.5164V18.2499H69.5676C70.0059 17.571 70.6266 17.0147 71.366 16.6378C72.1055 16.261 72.9372 16.0771 73.7762 16.105C75.4424 16.105 76.7266 16.6487 77.6289 17.7361C78.5312 18.8235 78.9806 20.3088 78.977 22.1921C78.977 24.2373 78.4504 25.8795 77.3971 27.1186C76.8965 27.7206 76.2534 28.2024 75.5199 28.5249C74.7864 28.8474 73.983 29.0014 73.175 28.9746C71.5879 28.9746 70.3854 28.3994 69.5676 27.2489ZM69.4544 22.072V23.3323C69.427 24.0491 69.6838 24.7496 70.1742 25.2957C70.4006 25.5475 70.6833 25.7482 71.0019 25.8831C71.3205 26.018 71.6669 26.0837 72.0157 26.0755C72.4288 26.0921 72.8396 26.0092 73.2098 25.8344C73.5799 25.6595 73.8972 25.3986 74.1321 25.0759C74.6336 24.4095 74.8843 23.4644 74.8843 22.2407C74.8843 21.2181 74.6551 20.4256 74.1968 19.8631C73.9671 19.5797 73.6682 19.3534 73.3258 19.2037C72.9834 19.0541 72.6078 18.9856 72.2313 19.0041C71.8537 18.9965 71.4791 19.0689 71.1349 19.2162C70.7906 19.3635 70.4854 19.5819 70.2416 19.8554C69.6958 20.4748 69.4149 21.2657 69.4544 22.072Z" fill="#272727"/>
<path d="M91.559 28.6748H87.7844V26.9133H87.7359C87.3577 27.5618 86.797 28.0979 86.1162 28.4618C85.4354 28.8256 84.6614 29.0029 83.8805 28.9739C82.6223 28.9739 81.6337 28.633 80.9147 27.9513C80.1958 27.2695 79.8363 26.3688 79.8363 25.249C79.8363 22.8629 81.3237 21.4892 84.2984 21.1279L87.8033 20.6831C87.8033 19.3417 87.0367 18.6711 85.5035 18.6711C83.932 18.6791 82.3992 19.1342 81.1035 19.9775V17.1346C81.8305 16.8088 82.5963 16.5676 83.3844 16.4162C84.2529 16.2194 85.1418 16.1148 86.0347 16.1043C89.7265 16.1043 91.5716 17.8496 91.5698 21.3401L91.559 28.6748ZM87.806 23.6895V22.8689L85.455 23.1552C84.1573 23.3171 83.5084 23.8728 83.5084 24.8221C83.502 25.0209 83.5412 25.2187 83.6231 25.4019C83.705 25.585 83.8278 25.7492 83.9829 25.883C84.3389 26.1717 84.7986 26.3192 85.2663 26.2946C85.6095 26.3055 85.9511 26.2453 86.2673 26.1181C86.5835 25.9909 86.8666 25.7999 87.0969 25.5584C87.5787 25.0455 87.8328 24.3759 87.806 23.6895Z" fill="#272727"/>
<path d="M101.472 28.5293C100.884 28.8258 99.9942 28.9716 98.8052 28.9716C95.9941 28.9716 94.5876 27.5859 94.5858 24.8146V19.1903H92.4883V16.4011H94.5858V13.7525L98.5653 12.6737V16.4011H101.472V19.1928H98.5653V24.1448C98.5653 25.4231 99.1045 26.0622 100.183 26.0622C100.64 26.0527 101.087 25.9331 101.482 25.7145L101.472 28.5293Z" fill="#272727"/>
<path d="M114.991 23.6176H106.549C106.684 25.3986 107.867 26.2891 110.1 26.2891C111.422 26.3155 112.724 25.9829 113.853 25.3304V28.0634C112.656 28.6718 111.101 28.9752 109.189 28.9735C107.1 28.9735 105.482 28.4247 104.336 27.3271C103.189 26.2295 102.611 24.6956 102.602 22.7253C102.602 20.6801 103.226 19.0661 104.473 17.8833C105.069 17.3018 105.785 16.8429 106.577 16.5351C107.368 16.2272 108.217 16.077 109.073 16.0937C110.96 16.0937 112.42 16.6246 113.454 17.6864C114.487 18.7482 115 20.1944 114.991 22.0249V23.6176ZM111.286 21.2937C111.286 19.5348 110.537 18.6553 109.038 18.6553C108.718 18.6586 108.403 18.7291 108.116 18.8617C107.829 18.9943 107.576 19.1858 107.377 19.4223C106.899 19.9497 106.602 20.6024 106.525 21.2937H111.286Z" fill="#272727"/>
<path d="M131.408 28.6756H126.253L120.968 21.2105C120.784 20.9065 120.624 20.5904 120.488 20.2646H120.426V28.6756H116.344V11.4906H120.426V19.6152H120.488C120.591 19.3928 120.758 19.0732 120.995 18.6565L125.999 11.4982H130.852L124.546 19.6894L131.408 28.6756Z" fill="#272727"/>
<path d="M143.327 23.6205H134.885C135.018 25.4015 136.202 26.292 138.436 26.292C139.758 26.3184 141.06 25.9857 142.189 25.3333V28.0663C140.992 28.6747 139.437 28.9781 137.525 28.9764C135.436 28.9764 133.818 28.4276 132.672 27.33C131.525 26.2324 130.947 24.6985 130.938 22.7282C130.938 20.683 131.562 19.069 132.809 17.8861C133.405 17.3046 134.121 16.8456 134.913 16.5377C135.704 16.2298 136.554 16.0797 137.409 16.0966C139.296 16.0966 140.756 16.6275 141.79 17.6893C142.823 18.7511 143.339 20.1938 143.337 22.0175L143.327 23.6205ZM139.622 21.2966C139.622 19.5377 138.873 18.6582 137.374 18.6582C137.054 18.6615 136.74 18.7319 136.452 18.8646C136.165 18.9972 135.913 19.1887 135.713 19.4252C135.232 19.955 134.934 20.6116 134.858 21.3068L139.622 21.2966Z" fill="#272727"/>
<path d="M157.216 16.4055L151.959 29.6612C150.701 32.8466 148.797 34.4402 146.248 34.4419C145.439 34.4637 144.632 34.3583 143.86 34.13V31.1107C144.384 31.4034 144.982 31.5562 145.591 31.553C146.059 31.5771 146.523 31.4556 146.913 31.2069C147.302 30.9583 147.595 30.596 147.747 30.175L148.43 28.6539L143.172 16.4055H147.594L150.02 23.8732C150.188 24.4096 150.306 24.9587 150.373 25.5145H150.425C150.517 24.9655 150.653 24.4238 150.829 23.8936L153.269 16.403L157.216 16.4055Z" fill="#272727"/>
<defs>
<linearGradient id="paint0_linear" x1="11.181" y1="6.03027" x2="11.181" y2="33.8077" gradientUnits="userSpaceOnUse">
<stop stop-color="#1AA1BB"/>
<stop offset="1" stop-color="#1A93B2"/>
</linearGradient>
</defs>
</svg>
